<svg viewBox="0 0 42 11" fill="none" xmlns="http://www.w3.org/2000/svg"><path d="M7.63 1.223C7.14.665 6.255.425 5.123.425H1.836a.47.47 0 0 0-.465.397L.003 9.502a.282.282 0 0 0 .28.325H2.31l.51-3.232-.016.101a.47.47 0 0 1 .463-.397h.964c1.894 0 3.377-.769 3.81-2.994.013-.066.024-.13.034-.193.129-.822-.001-1.382-.446-1.89" fill="#003087"/><path d="M32.468 5.352c-.124.815-.746.815-1.347.815h-.342l.24-1.52a.189.189 0 0 1 .187-.16h.157c.41 0 .796 0 .995.233.12.14.155.346.11.632Zm-.261-2.125h-2.27a.316.316 0 0 0-.311.267l-.917 5.817a.19.19 0 0 0 .187.218h1.164a.22.22 0 0 0 .218-.186l.26-1.65a.315.315 0 0 1 .312-.266h.717c1.495 0 2.358-.722 2.583-2.156.101-.627.004-1.12-.29-1.464-.322-.38-.894-.58-1.653-.58" fill="#009CDE"/><path d="M16.289 5.353c-.124.814-.746.814-1.348.814H14.6l.24-1.52a.189.189 0 0 1 .187-.16h.157c.41 0 .796 0 .995.233.12.14.156.347.11.633Zm-.262-2.125h-2.269a.316.316 0 0 0-.311.266l-.917 5.817a.189.189 0 0 0 .186.219H13.8a.315.315 0 0 0 .311-.267l.248-1.569a.315.315 0 0 1 .311-.266h.718c1.495 0 2.357-.723 2.582-2.157.102-.626.004-1.119-.29-1.464-.322-.379-.894-.58-1.653-.58Zm5.267 4.213a1.212 1.212 0 0 1-1.226 1.038c-.315 0-.568-.102-.73-.294-.16-.19-.22-.461-.17-.763a1.216 1.216 0 0 1 1.218-1.045c.308 0 .558.102.724.296.166.195.232.468.184.768Zm1.514-2.115h-1.086a.19.19 0 0 0-.187.16l-.048.304-.076-.11c-.235-.341-.76-.456-1.283-.456-1.2 0-2.226.91-2.425 2.185-.104.637.044 1.245.405 1.67.331.39.804.552 1.368.552.967 0 1.504-.621 1.504-.621l-.049.301a.187.187 0 0 0 .108.202.189.189 0 0 0 .08.017h.977a.315.315 0 0 0 .312-.266l.587-3.719a.188.188 0 0 0-.108-.201.19.19 0 0 0-.08-.017" fill="#003087"/><path d="M37.475 7.441A1.212 1.212 0 0 1 36.25 8.48c-.315 0-.568-.102-.73-.294-.16-.19-.22-.461-.17-.763a1.215 1.215 0 0 1 1.218-1.045c.308 0 .558.102.724.296.166.195.232.468.184.768Zm1.514-2.115h-1.086a.19.19 0 0 0-.187.16l-.048.304-.076-.11c-.235-.341-.76-.456-1.283-.456-1.2 0-2.225.91-2.425 2.185-.104.637.044 1.245.405 1.67.331.39.804.552 1.368.552.968 0 1.504-.621 1.504-.621l-.048.301a.189.189 0 0 0 .186.219h.978a.316.316 0 0 0 .312-.266l.587-3.719a.19.19 0 0 0-.108-.201.19.19 0 0 0-.079-.017" fill="#009CDE"/><path d="M28.593 5.326h-1.092a.314.314 0 0 0-.26.139l-1.507 2.218-.638-2.132a.316.316 0 0 0-.302-.225H23.72a.19.19 0 0 0-.179.25l1.203 3.53-1.131 1.596a.19.19 0 0 0 .154.298h1.091c.103 0 .2-.05.26-.135l3.63-5.242a.19.19 0 0 0-.155-.297" fill="#003087"/><path d="m40.27 3.388-.932 5.924a.19.19 0 0 0 .108.2.19.19 0 0 0 .08.018h.935a.316.316 0 0 0 .312-.266l.918-5.817a.19.19 0 0 0-.108-.202.19.19 0 0 0-.079-.017h-1.047a.189.189 0 0 0-.187.16" fill="#009CDE"/><path d="M7.63 1.223C7.14.665 6.255.425 5.123.425H1.836a.47.47 0 0 0-.465.397L.003 9.502a.282.282 0 0 0 .28.325H2.31l.51-3.232-.016.101a.47.47 0 0 1 .463-.397h.964c1.894 0 3.377-.769 3.81-2.994.013-.066.024-.13.034-.193.129-.822-.001-1.382-.446-1.89" fill="#003087"/><path d="M3.368 3.123a.412.412 0 0 1 .407-.347H6.35c.305 0 .59.02.85.062.142.022.283.054.42.094.158.044.31.105.455.18.129-.822-.001-1.382-.446-1.89C7.14.666 6.255.427 5.123.427H1.836a.47.47 0 0 0-.464.397L.003 9.5a.282.282 0 0 0 .279.326h2.03l.509-3.232.547-3.472Z" fill="#003087"/><path d="M8.076 3.112a5.36 5.36 0 0 1-.033.192C7.609 5.53 6.126 6.3 4.233 6.3h-.965a.469.469 0 0 0-.463.397l-.494 3.13-.14.888a.247.247 0 0 0 .244.286h1.71a.412.412 0 0 0 .407-.347l.016-.087.323-2.043.02-.113a.412.412 0 0 1 .407-.347h.256c1.656 0 2.954-.673 3.333-2.62.158-.813.076-1.493-.342-1.97a1.633 1.633 0 0 0-.469-.361" fill="#009CDE"/><path d="M7.626 2.932a2.977 2.977 0 0 0-.422-.094 5.313 5.313 0 0 0-.85-.062H3.778a.41.41 0 0 0-.406.347l-.548 3.472-.015.101A.469.469 0 0 1 3.27 6.3h.965c1.894 0 3.377-.769 3.81-2.994.013-.066.024-.13.034-.193a2.34 2.34 0 0 0-.454-.18" fill="#012169"/></svg>