<svg width="20" height="20" fill="none" xmlns="http://www.w3.org/2000/svg"><path d="m19.83 17.581-1.899-1.404-3.9-7.806 5.8-4.286a.416.416 0 1 0-.495-.67l-5.682 4.2-3.281-6.57c-.142-.283-.604-.283-.746 0l-3.281 6.57-5.682-4.2a.416.416 0 1 0-.495.67l5.8 4.286-3.9 7.806-1.9 1.404a.416.416 0 1 0 .495.67l.585-.432-.372.743a.418.418 0 0 0 .373.604h17.5a.419.419 0 0 0 .372-.604l-.371-.743.585.432a.418.418 0 0 0 .583-.087.416.416 0 0 0-.088-.583Zm-3.379-2.497-5.75-4.251 2.647-1.957 3.103 6.208ZM10 2.18l2.97 5.94L10 10.314 7.03 8.12 10 2.181ZM6.652 8.876 9.3 10.833l-5.751 4.25 3.103-6.207Zm-4.728 9.457.803-1.607L10 11.351l7.273 5.375.803 1.607H1.924Z" fill="#787A80"/></svg>