<svg width="20" height="20" fill="none" xmlns="http://www.w3.org/2000/svg"><g clip-path="url(#a)"><path d="M19.167 18.578V1.422l.711-.712a.417.417 0 1 0-.59-.589l-.71.711H1.422L.71.123A.416.416 0 1 0 .122.71l.711.712v17.155l-.71.71a.416.416 0 1 0 .588.59l.712-.711h17.154l.712.71a.415.415 0 0 0 .589 0 .416.416 0 0 0 0-.588l-.711-.712ZM10 1.666h7.744L15.581 3.83A8.29 8.29 0 0 0 10 1.667 8.29 8.29 0 0 0 4.419 3.83L2.256 1.667H10ZM9.41 10 4.42 14.992A7.46 7.46 0 0 1 2.5 10a7.46 7.46 0 0 1 1.919-4.992L9.41 10ZM5.009 4.419A7.46 7.46 0 0 1 10 2.5a7.46 7.46 0 0 1 4.992 1.919L10 9.41 5.008 4.419ZM10 10.589l4.992 4.992A7.46 7.46 0 0 1 10 17.5a7.46 7.46 0 0 1-4.992-1.919L10 10.59Zm.59-.589 4.991-4.992A7.46 7.46 0 0 1 17.5 10a7.46 7.46 0 0 1-1.919 4.992L10.59 10Zm-8.923 0V2.256L3.83 4.419A8.29 8.29 0 0 0 1.667 10a8.29 8.29 0 0 0 2.163 5.581l-2.163 2.163V10ZM10 18.333H2.256l2.163-2.163A8.29 8.29 0 0 0 10 18.333a8.29 8.29 0 0 0 5.581-2.163l2.163 2.163H10ZM18.333 10v7.744l-2.163-2.163A8.29 8.29 0 0 0 18.333 10a8.29 8.29 0 0 0-2.163-5.581l2.163-2.163V10Z" fill="#787A80"/></g><defs><clipPath id="a"><path fill="#fff" d="M0 0h20v20H0z"/></clipPath></defs></svg>