<svg width="20" height="20" fill="none" xmlns="http://www.w3.org/2000/svg"><path d="M19.997 15.362 18.474 3.946A1.672 1.672 0 0 0 16.822 2.5H7.083a.416.416 0 1 0 0 .833h9.739c.416 0 .771.311.826.723l.57 4.277h-3.174l2.292-1.752a.417.417 0 1 0-.506-.662l-3.157 2.414h-6.59c-.24 0-.476.013-.71.036L3.17 5.92a.417.417 0 0 0-.506.662l2.61 1.995C2.243 9.38 0 12.137 0 15.416c0 .23.186.417.417.417h3.449l-1.202.92a.417.417 0 1 0 .506.661l2.067-1.58h9.526l2.067 1.58a.415.415 0 0 0 .584-.078.417.417 0 0 0-.078-.584l-1.202-.919h3.45a.415.415 0 0 0 .413-.471Zm-7.414-6.195L10 11.142 7.416 9.167h5.167ZM4.955 15H.847c.194-2.939 2.431-5.322 5.3-5.756l3.167 2.423L4.955 15Zm1.372 0L10 12.19 13.673 15H6.327Zm8.717 0-4.359-3.333 3.27-2.5h4.375L19.107 15h-4.063Z" fill="#787A80"/></svg>